<svg width="25" height="25" viewBox="0 0 25 25" fill="none" xmlns="http://www.w3.org/2000/svg">
<g clip-path="url(#clip0_12_32)">
<path d="M24.2072 22.3986L23.1302 21.3216L21.4002 19.5946L24.1892 16.8056C24.3079 16.6867 24.3948 16.5398 24.4417 16.3785C24.4887 16.2171 24.4942 16.0466 24.4579 15.8825C24.4215 15.7185 24.3444 15.5663 24.2336 15.4399C24.1229 15.3136 23.9821 15.2172 23.8242 15.1596L14.8552 11.9056C14.498 11.7765 14.1113 11.7518 13.7405 11.8344C13.3697 11.917 13.0301 12.1034 12.7615 12.372C12.4928 12.6406 12.3062 12.9801 12.2234 13.3509C12.1407 13.7216 12.1652 14.1083 12.2942 14.4656L15.5572 23.4346C15.6145 23.5926 15.7107 23.7336 15.8369 23.8446C15.9631 23.9555 16.1152 24.0329 16.2792 24.0696C16.3505 24.0851 16.4233 24.0928 16.4962 24.0926C16.7614 24.0925 17.0157 23.9871 17.2032 23.7996L19.9892 21.0056L21.7162 22.7326L22.7932 23.8096C22.9818 23.9917 23.2344 24.0925 23.4966 24.0903C23.7588 24.088 24.0096 23.9828 24.1951 23.7974C24.3805 23.612 24.4856 23.3612 24.4879 23.099C24.4902 22.8368 24.3894 22.5842 24.2072 22.3956V22.3986ZM16.9002 21.2706L14.1762 13.7806L21.6662 16.5046L16.9002 21.2706Z" fill="white"/>
<path d="M10.5 20.1061C8.52219 20.1061 6.58879 19.5196 4.9443 18.4208C3.29981 17.322 2.01809 15.7602 1.26121 13.9329C0.504333 12.1057 0.306299 10.095 0.692152 8.15518C1.078 6.21537 2.03041 4.43354 3.42894 3.03502C4.82746 1.63649 6.60929 0.684083 8.5491 0.298231C10.4889 -0.0876214 12.4996 0.110412 14.3268 0.867288C16.1541 1.62416 17.7159 2.90589 18.8147 4.55038C19.9135 6.19487 20.5 8.12827 20.5 10.1061C20.5 10.3713 20.3946 10.6257 20.2071 10.8132C20.0196 11.0007 19.7652 11.1061 19.5 11.1061C19.2348 11.1061 18.9804 11.0007 18.7929 10.8132C18.6054 10.6257 18.5 10.3713 18.5 10.1061C18.5 8.52383 18.0308 6.97711 17.1518 5.66152C16.2727 4.34593 15.0233 3.32055 13.5615 2.71505C12.0997 2.10955 10.4911 1.95112 8.93928 2.2598C7.38743 2.56848 5.96197 3.33041 4.84315 4.44923C3.72433 5.56805 2.9624 6.99351 2.65372 8.54536C2.34504 10.0972 2.50347 11.7057 3.10897 13.1676C3.71447 14.6294 4.73985 15.8788 6.05544 16.7578C7.37104 17.6369 8.91775 18.1061 10.5 18.1061C10.7652 18.1061 11.0196 18.2114 11.2071 18.399C11.3946 18.5865 11.5 18.8409 11.5 19.1061C11.5 19.3713 11.3946 19.6257 11.2071 19.8132C11.0196 20.0007 10.7652 20.1061 10.5 20.1061Z" fill="white"/>
<path d="M8.58391 15.7263C8.45249 15.7263 8.32234 15.7005 8.20091 15.6503C7.28977 15.2718 6.486 14.6745 5.8608 13.9113C5.23559 13.1481 4.80825 12.2425 4.6166 11.2747C4.42496 10.3068 4.47493 9.3067 4.7621 8.36281C5.04926 7.41892 5.56476 6.56041 6.26293 5.8633C6.9611 5.1662 7.8204 4.65202 8.76473 4.3663C9.70906 4.08058 10.7093 4.03214 11.6768 4.22526C12.6443 4.41839 13.5493 4.84712 14.3116 5.47349C15.0738 6.09986 15.6699 6.90454 16.0469 7.81626C16.0998 7.93807 16.1278 8.06919 16.1295 8.20196C16.1311 8.33473 16.1063 8.46649 16.0564 8.58956C16.0066 8.71264 15.9328 8.82456 15.8392 8.91879C15.7457 9.01302 15.6343 9.08768 15.5116 9.13841C15.3889 9.18914 15.2573 9.21492 15.1245 9.21426C14.9917 9.21359 14.8604 9.18649 14.7382 9.13453C14.616 9.08258 14.5054 9.00681 14.4128 8.91164C14.3202 8.81648 14.2475 8.70383 14.1989 8.58026C13.947 7.973 13.5492 7.4372 13.0409 7.02027C12.5326 6.60334 11.9293 6.31814 11.2845 6.1899C10.6396 6.06167 9.97314 6.09435 9.34395 6.28506C8.71477 6.47577 8.14229 6.81863 7.67718 7.28329C7.21207 7.74796 6.86866 8.32011 6.67735 8.94911C6.48604 9.57811 6.45272 10.2446 6.58034 10.8895C6.70796 11.5345 6.99258 12.138 7.40902 12.6467C7.82547 13.1555 8.36089 13.5537 8.96791 13.8063C9.18184 13.8948 9.35842 14.0548 9.46752 14.259C9.57663 14.4632 9.6115 14.6989 9.56618 14.926C9.52087 15.153 9.39818 15.3573 9.21904 15.504C9.03991 15.6507 8.81543 15.7306 8.58391 15.7303V15.7263Z" fill="white"/>
</g>
<defs>
<clipPath id="clip0_12_32">
<rect width="24" height="24" fill="white" transform="translate(0.5 0.106079)"/>
</clipPath>
</defs>
</svg>
