<svg width="25" height="25" viewBox="0 0 25 25" fill="none" xmlns="http://www.w3.org/2000/svg">
<g clip-path="url(#clip0_10_66)">
<path fill-rule="evenodd" clip-rule="evenodd" d="M12.5003 0.606079C9.65149 0.607557 6.89613 1.61654 4.72687 3.4526C2.55761 5.28867 1.1159 7.83209 0.659545 10.6281C0.203186 13.4241 0.761927 16.2903 2.23587 18.7143C3.70981 21.1382 6.00284 22.9618 8.70493 23.8591C9.30105 23.9697 9.5256 23.6002 9.5256 23.2861C9.5256 22.9719 9.51367 22.0611 9.5097 21.0653C6.1714 21.7865 5.46599 19.6566 5.46599 19.6566C4.92152 18.2735 4.13464 17.91 4.13464 17.91C3.04571 17.171 4.21611 17.1849 4.21611 17.1849C5.42227 17.2698 6.05616 18.4158 6.05616 18.4158C7.12521 20.2394 8.86389 19.7119 9.54745 19.4037C9.65475 18.6311 9.96673 18.1056 10.3105 17.8072C7.64383 17.5069 4.84204 16.4835 4.84204 11.9115C4.82551 10.7258 5.26802 9.57913 6.07801 8.70876C5.95481 8.40844 5.54348 7.19531 6.19524 5.54751C6.19524 5.54751 7.2027 5.22743 9.4958 6.77052C11.4627 6.2357 13.5379 6.2357 15.5047 6.77052C17.7958 5.22743 18.8013 5.54751 18.8013 5.54751C19.4551 7.19136 19.0437 8.40449 18.9205 8.70876C19.7331 9.57927 20.1765 10.7279 20.1585 11.9155C20.1585 16.4973 17.3507 17.5069 14.6801 17.8013C15.1093 18.1728 15.4928 18.8979 15.4928 20.0122C15.4928 21.6086 15.4789 22.8929 15.4789 23.2861C15.4789 23.6042 15.6955 23.9756 16.3035 23.8591C19.0059 22.9617 21.2992 21.1378 22.7731 18.7134C24.247 16.289 24.8055 13.4224 24.3486 10.6261C23.8917 7.82988 22.4493 5.28643 20.2793 3.45068C18.1094 1.61494 15.3533 0.60662 12.5042 0.606079H12.5003Z" fill="white"/>
<path d="M5.04444 17.7381C5.0186 17.7974 4.92322 17.8151 4.84573 17.7736C4.76823 17.7322 4.71061 17.6551 4.73843 17.5939C4.76625 17.5326 4.85964 17.5168 4.93714 17.5583C5.01463 17.5998 5.07424 17.6788 5.04444 17.7381Z" fill="white"/>
<path d="M5.53123 18.2775C5.49008 18.2981 5.443 18.3038 5.39805 18.2937C5.3531 18.2837 5.31308 18.2583 5.28483 18.2221C5.20734 18.1392 5.19143 18.0246 5.25104 17.9732C5.31066 17.9218 5.41797 17.9455 5.49546 18.0285C5.57296 18.1115 5.59084 18.2261 5.53123 18.2775Z" fill="white"/>
<path d="M6.00425 18.963C5.93072 19.0144 5.80553 18.963 5.73598 18.8603C5.71675 18.8419 5.70146 18.8198 5.69101 18.7953C5.68056 18.7709 5.67517 18.7446 5.67517 18.7181C5.67517 18.6915 5.68056 18.6652 5.69101 18.6408C5.70146 18.6163 5.71675 18.5942 5.73598 18.5758C5.8095 18.5264 5.9347 18.5758 6.00425 18.6766C6.07379 18.7773 6.07578 18.9117 6.00425 18.963Z" fill="white"/>
<path d="M6.64612 19.6269C6.58054 19.7001 6.44741 19.6803 6.33812 19.5815C6.22883 19.4827 6.20299 19.3484 6.26857 19.2772C6.33414 19.2061 6.46727 19.2259 6.58054 19.3227C6.6938 19.4195 6.71566 19.5558 6.64612 19.6269Z" fill="white"/>
<path d="M7.54617 20.0142C7.51637 20.107 7.38124 20.1485 7.24612 20.109C7.111 20.0695 7.02158 19.9588 7.04741 19.864C7.07325 19.7692 7.21036 19.7257 7.34747 19.7692C7.48457 19.8126 7.57201 19.9173 7.54617 20.0142Z" fill="white"/>
<path d="M8.52783 20.0814C8.52783 20.1782 8.41656 20.2612 8.27349 20.2631C8.13042 20.2651 8.01318 20.1861 8.01318 20.0893C8.01318 19.9925 8.12445 19.9095 8.26752 19.9075C8.41059 19.9055 8.52783 19.9826 8.52783 20.0814Z" fill="white"/>
<path d="M9.4419 19.9292C9.45978 20.0261 9.36042 20.1268 9.21735 20.1505C9.07428 20.1742 8.9491 20.1169 8.93121 20.0221C8.91333 19.9273 9.01666 19.8245 9.15576 19.7988C9.29485 19.7732 9.42401 19.8324 9.4419 19.9292Z" fill="white"/>
</g>
<defs>
<clipPath id="clip0_10_66">
<rect width="24" height="24" fill="white" transform="translate(0.5 0.106079)"/>
</clipPath>
</defs>
</svg>
